<svg xmlns="http://www.w3.org/2000/svg" viewBox="0 0 640 360" role="img" aria-labelledby="title desc">
  <title id="title">Hub de datos maestros implementado con TIBCO EBX</title>
  <desc id="desc">Representación de un repositorio central de datos maestros con jerarquías, workflows y conectores.</desc>
  <defs>
    <linearGradient id="bg" x1="0%" y1="0%" x2="100%" y2="0%">
      <stop offset="0%" stop-color="#283593" />
      <stop offset="100%" stop-color="#512da8" />
    </linearGradient>
    <linearGradient id="node" x1="0%" y1="0%" x2="100%" y2="100%">
      <stop offset="0%" stop-color="#ede7f6" />
      <stop offset="100%" stop-color="#d1c4e9" />
    </linearGradient>
  </defs>
  <rect width="640" height="360" rx="24" fill="url(#bg)" />
  <g transform="translate(80 56)">
    <rect x="0" y="0" width="480" height="248" rx="28" fill="#ede7f6" opacity="0.9" />
    <rect x="32" y="36" width="416" height="36" rx="12" fill="#673ab7" opacity="0.9" />
    <text x="48" y="62" font-family="'Segoe UI', 'Helvetica Neue', Arial, sans-serif" font-size="20" fill="#ede7f6">Catálogo maestro EBX</text>
    <g fill="url(#node)" stroke="#512da8" stroke-width="4">
      <rect x="64" y="104" width="112" height="64" rx="12" />
      <rect x="208" y="104" width="112" height="64" rx="12" />
      <rect x="352" y="104" width="64" height="64" rx="12" />
      <rect x="136" y="192" width="112" height="64" rx="12" />
      <rect x="288" y="192" width="112" height="64" rx="12" />
    </g>
    <g stroke="#7e57c2" stroke-width="6" stroke-linecap="round">
      <path d="M120 168v24" />
      <path d="M264 168v24" />
      <path d="M184 168l64 48" />
      <path d="M328 168l64 48" />
      <path d="M120 168h88" />
      <path d="M264 168h88" />
    </g>
    <g font-family="'Segoe UI', 'Helvetica Neue', Arial, sans-serif" font-size="16" fill="#512da8" font-weight="600">
      <text x="88" y="144">Productos</text>
      <text x="232" y="144">Clientes</text>
      <text x="360" y="144">Catálogos</text>
      <text x="160" y="228">Workflows</text>
      <text x="312" y="228">Integraciones</text>
    </g>
  </g>
  <text x="40" y="328" font-family="'Segoe UI', 'Helvetica Neue', Arial, sans-serif" font-size="34" fill="#ede7f6" font-weight="600">Hub MDM con TIBCO EBX</text>
</svg>
