<svg xmlns="http://www.w3.org/2000/svg" viewBox="0 0 200 200" role="img" aria-hidden="true">
  <defs>
    <linearGradient id="heartGradient" x1="0%" y1="0%" x2="100%" y2="100%">
      <stop offset="0%" stop-color="#f49bc0" />
      <stop offset="100%" stop-color="#de5d98" />
    </linearGradient>
  </defs>
  <path
    d="M100 180C95 176 90 172 84 167C64 151 44 134 31 114C20 97 19 74 34 58C49 42 74 42 90 58C94 62 97 66 100 71C103 66 106 62 110 58C126 42 151 42 166 58C181 74 180 97 169 114C156 134 136 151 116 167C110 172 105 176 100 180Z"
    fill="url(#heartGradient)"
  />
</svg>
